<?xml version="1.0" standalone="no"?>
<!DOCTYPE svg PUBLIC "-//W3C//DTD SVG 20010904//EN"
 "http://www.w3.org/TR/2001/REC-SVG-20010904/DTD/svg10.dtd">
<svg version="1.0" xmlns="http://www.w3.org/2000/svg"
 width="1038.000000pt" height="1038.000000pt" viewBox="0 0 1038.000000 1038.000000"
 preserveAspectRatio="xMidYMid meet">
<metadata>
Created by potrace 1.14, written by Peter Selinger 2001-2017
</metadata>
<g transform="translate(0.000000,1038.000000) scale(0.100000,-0.100000)"
fill="#000000" stroke="none">
<path d="M2295 10341 c3 -11 0 -29 -7 -40 -10 -16 -9 -25 2 -46 10 -19 11 -28
2 -37 -16 -16 -15 -51 0 -66 10 -10 10 -17 0 -32 -6 -11 -12 -29 -12 -40 0
-20 1 -20 3233 -22 l3232 -3 0 -170 0 -170 -152 -3 -152 -3 -3 -152 -3 -152
-162 -3 c-90 -1 -164 -4 -165 -5 -1 -1 -4 -1239 -7 -2752 l-6 -2750 -3390 -5
c-1865 -3 -3396 -3 -3403 -1 -9 2 -12 528 -12 2586 0 2057 -3 2584 -12 2587
-7 2 -76 3 -153 3 l-140 -2 -5 -2901 c-4 -2269 -8 -2904 -17 -2913 -9 -9 -91
-12 -323 -12 l-310 0 0 -154 0 -153 4205 0 4205 0 0 159 c0 136 2 160 16 165
9 3 83 6 165 6 l149 0 0 149 c0 127 2 150 16 155 9 3 83 6 165 6 l149 0 0 153
c0 106 4 157 12 165 8 8 57 12 155 12 140 0 143 0 148 -22 3 -13 4 -88 3 -168
l-3 -145 -152 -3 -152 -3 -3 -152 -3 -152 -162 -3 -163 -2 -2 -163 -3 -162
-158 -3 c-113 -2 -159 -6 -163 -15 -2 -6 -5 -514 -7 -1127 l-2 -1115 -4205 -5
c-2313 -3 -4208 -2 -4213 1 -4 3 -7 503 -7 1111 0 608 -3 1113 -6 1122 -5 14
-27 16 -155 16 l-149 0 0 -1285 0 -1284 156 -3 157 -3 -2 -167 -2 -168 4380 0
4381 0 2 163 3 162 148 2 c81 0 153 3 161 6 10 4 13 35 11 139 -3 198 -16 182
156 188 l144 5 3 155 2 156 168 -1 167 0 0 165 0 166 168 -1 167 -2 0 1296 0
1296 -170 -1 -170 -1 0 159 0 158 -309 0 c-237 0 -312 3 -318 13 -4 6 -8 1319
-8 2917 l0 2905 -155 5 c-85 3 -162 7 -170 10 -12 4 -16 33 -20 150 l-5 145
-3383 3 c-3344 2 -3383 2 -3377 -17z"/>
<path d="M2103 10042 l-143 -3 0 -160 0 -160 153 3 152 3 3 156 c2 120 0 158
-10 160 -7 2 -77 3 -155 1z"/>
<path d="M1642 9568 l3 -143 145 0 145 0 0 140 0 140 -148 3 -148 3 3 -143z"/>
<path d="M1317 9393 c-4 -3 -7 -73 -7 -155 l0 -148 155 0 155 0 0 155 0 155
-148 0 c-82 0 -152 -3 -155 -7z"/>
<path d="M1954 8737 c-19 -11 -17 197 -21 -2236 -2 -1560 -1 -1956 9 -1963 7
-4 1247 -8 2754 -8 2301 0 2743 2 2753 14 8 10 10 524 8 1962 -2 1072 -5 2013
-7 2092 l-5 142 -2738 3 c-1506 1 -2745 -2 -2753 -6z m951 -1285 l0 -314 -145
0 -145 0 -3 303 c-1 167 0 310 3 317 3 10 38 12 147 10 l143 -3 0 -313z m2243
-462 c1 -69 0 -135 -3 -147 l-5 -23 -483 -2 -482 -3 -3 -160 c-1 -87 0 -166 4
-175 5 -11 7 -166 4 -312 0 -12 -664 -10 -676 1 -5 6 -8 193 -6 481 l2 470
823 -2 822 -3 3 -125z m950 -993 l2 -477 -812 2 -813 3 -3 465 c-1 256 0 471
3 478 3 10 171 12 812 10 l808 -3 3 -478z"/>
<path d="M6473 2272 l-1601 -2 -5 -173 c-10 -391 -10 -459 5 -468 7 -5 441 -9
963 -9 523 0 958 0 968 0 17 0 18 -11 16 -149 -1 -82 1 -152 4 -157 3 -5 70
-9 149 -9 l143 0 2 154 c1 84 4 155 6 157 3 3 221 5 484 4 415 0 482 2 493 15
16 20 3 632 -14 637 -6 2 -732 2 -1613 0z"/>
<path d="M1303 1626 c-4 -8 -7 -85 -5 -170 l3 -156 317 2 317 3 5 154 c4 120
2 158 -8 168 -20 20 -618 19 -629 -1z"/>
</g>
</svg>
